<svg xmlns="http://www.w3.org/2000/svg" width="32" height="32" viewBox="0 0 32 32" fill="none"><path d="M15.9995 27.9999C11.8795 27.9999 5.63951 19.5333 5.58618 19.4399C1.91951 14.3199 1.65284 9.45328 4.85284 6.42662C5.85251 5.51197 7.10044 4.91352 8.43951 4.70662C9.86992 4.48322 11.3343 4.66165 12.6692 5.22199C14.0041 5.78232 15.1571 6.70253 15.9995 7.87995C16.8419 6.70253 17.9949 5.78232 19.3298 5.22199C20.6647 4.66165 22.1291 4.48322 23.5595 4.70662C24.8986 4.91352 26.1465 5.51197 27.1462 6.42662C30.3462 9.45328 30.0795 14.3199 26.4128 19.4399C26.3595 19.5333 20.1195 27.9999 15.9995 27.9999ZM9.69284 7.26662C9.43099 7.24685 9.16803 7.24685 8.90618 7.26662C8.06557 7.39437 7.28403 7.77583 6.66618 8.35995C3.57284 11.2799 6.38618 15.9999 7.73284 17.8933C10.1595 21.3333 14.3728 25.3333 15.9995 25.3333C17.6262 25.3333 21.8395 21.2666 24.2528 17.8933C25.5862 15.9999 28.4128 11.2266 25.3195 8.35995C24.695 7.80523 23.9202 7.44797 23.0928 7.33328C21.8791 7.16317 20.6437 7.41632 19.5947 8.05012C18.5456 8.68392 17.7469 9.65969 17.3328 10.8133C17.2718 10.9776 17.2005 11.1379 17.1195 11.2933C17.0053 11.505 16.8359 11.6818 16.6293 11.805C16.4228 11.9283 16.1867 11.9933 15.9462 11.9933C15.7056 11.9933 15.4696 11.9283 15.263 11.805C15.0565 11.6818 14.8871 11.505 14.7728 11.2933C14.7285 11.1399 14.6929 10.9841 14.6662 10.8266C14.2896 9.80306 13.614 8.91633 12.7272 8.28151C11.8403 7.64669 10.7832 7.29309 9.69284 7.26662Z" fill="$color-accent"/></svg>